<svg xmlns="http://www.w3.org/2000/svg" viewBox="0 0 318 96"><rect width="96" height="96" rx="24" fill="#F0FDFA"/>
<path d="M66 32c-4-6-12-8-19-6-8 2.2-11 9-6.5 14.5C45 46 55 46 60.5 51.5 66 57 62 65 53 67c-7.5 1.7-15-.5-19-6" fill="none" stroke="#0D9488" stroke-width="10" stroke-linecap="round"/>
<circle cx="66" cy="32" r="7" fill="#14B8A6"/>
<circle cx="34" cy="61" r="7" fill="#F97316"/><g transform="translate(122,71.0) scale(0.05897)"><g fill="#134E4A"><path transform="translate(0,0) scale(1,-1)" d="M285 -18Q165 -18 96.0 31.5Q27 81 22 171H182Q186 146 213.0 128.0Q240 110 289 110Q324 110 349.5 120.5Q375 131 375 155Q375 176 355.0 189.5Q335 203 282 208L244 212Q138 223 88.0 270.0Q38 317 38 388Q38 449 68.0 488.5Q98 528 151.0 548.0Q204 568 272 568Q383 568 451.0 519.5Q519 471 523 380H363Q359 405 336.0 422.5Q313 440 270 440Q239 440 219.5 429.0Q200 418 200 398Q200 377 218.5 367.0Q237 357 278 352L316 348Q422 337 479.5 289.5Q537 242 537 165Q537 108 506.5 67.0Q476 26 419.5 4.0Q363 -18 285 -18Z"/><path transform="translate(532,0) scale(1,-1)" d="M325 -20Q255 -20 201.0 4.0Q147 28 110.0 69.0Q73 110 53.5 161.0Q34 212 34 266V286Q34 342 53.5 393.5Q73 445 109.5 485.0Q146 525 199.0 548.5Q252 572 319 572Q408 572 470.0 532.0Q532 492 565.0 426.5Q598 361 598 284V226H110V324H493L430 280Q430 327 417.5 359.5Q405 392 380.5 409.0Q356 426 319 426Q283 426 256.5 409.5Q230 393 216.0 359.5Q202 326 202 275Q202 229 215.0 195.5Q228 162 255.0 144.0Q282 126 325 126Q363 126 387.5 139.0Q412 152 422 174H588Q576 118 540.5 74.0Q505 30 450.5 5.0Q396 -20 325 -20Z"/><path transform="translate(1130,0) scale(1,-1)" d="M66 0V552H210V315H202Q202 401 224.0 457.5Q246 514 289.5 542.0Q333 570 395 570H403Q497 570 548.5 507.5Q600 445 600 316V0H418V321Q418 359 395.5 383.5Q373 408 334 408Q295 408 271.5 383.5Q248 359 248 319V0Z"/><path transform="translate(1756,0) scale(1,-1)" d="M293 -18Q235 -18 187.5 3.0Q140 24 105.5 61.5Q71 99 52.5 150.0Q34 201 34 261V285Q34 345 51.5 396.5Q69 448 102.0 486.5Q135 525 182.0 546.5Q229 568 287 568Q354 568 401.5 538.5Q449 509 474.5 453.0Q500 397 502 317L460 348V730H642V0H498V224H518Q516 150 488.0 95.5Q460 41 410.5 11.5Q361 -18 293 -18ZM342 132Q375 132 402.5 147.0Q430 162 447.0 191.0Q464 220 464 261V295Q464 335 446.5 362.0Q429 389 401.5 403.5Q374 418 342 418Q306 418 277.5 399.5Q249 381 232.5 348.5Q216 316 216 273Q216 230 232.5 198.5Q249 167 277.5 149.5Q306 132 342 132Z"/><path transform="translate(2434,0) scale(1,-1)" d="M325 -20Q255 -20 201.0 4.0Q147 28 110.0 69.0Q73 110 53.5 161.0Q34 212 34 266V286Q34 342 53.5 393.5Q73 445 109.5 485.0Q146 525 199.0 548.5Q252 572 319 572Q408 572 470.0 532.0Q532 492 565.0 426.5Q598 361 598 284V226H110V324H493L430 280Q430 327 417.5 359.5Q405 392 380.5 409.0Q356 426 319 426Q283 426 256.5 409.5Q230 393 216.0 359.5Q202 326 202 275Q202 229 215.0 195.5Q228 162 255.0 144.0Q282 126 325 126Q363 126 387.5 139.0Q412 152 422 174H588Q576 118 540.5 74.0Q505 30 450.5 5.0Q396 -20 325 -20Z"/></g><path fill="#F97316" transform="translate(3042,0) scale(1,-1)" d="M40 0V198H236V0Z"/></g></svg>